<svg xmlns="http://www.w3.org/2000/svg" xmlns:xlink="http://www.w3.org/1999/xlink" width="256" zoomAndPan="magnify" viewBox="0 0 192 191.999996" height="256" preserveAspectRatio="xMidYMid meet" version="1.0"><defs><clipPath id="51326203d2"><path d="M 23.246094 23.246094 L 168.746094 23.246094 L 168.746094 168.746094 L 23.246094 168.746094 Z M 23.246094 23.246094 " clip-rule="nonzero"/></clipPath></defs><rect x="-19.2" width="230.4" fill="#ffffff" y="-19.2" height="230.399995" fill-opacity="1"/><rect x="-19.2" width="230.4" fill="#12437c" y="-19.2" height="230.399995" fill-opacity="1"/><g clip-path="url(#51326203d2)"><path fill="#a7d8e7" d="M 168.058594 98.273438 L 160.914062 92.882812 C 160.371094 92.472656 159.628906 92.449219 159.070312 92.832031 L 150.296875 97.097656 L 144.25 96.792969 L 153.210938 88.894531 C 153.871094 88.3125 153.933594 87.308594 153.351562 86.644531 C 152.773438 85.984375 151.769531 85.921875 151.105469 86.503906 L 136.390625 96.390625 L 129.855469 96.058594 L 138.816406 88.15625 C 139.476562 87.578125 139.539062 86.574219 138.957031 85.90625 C 138.378906 85.25 137.375 85.1875 136.710938 85.765625 L 122.660156 95.691406 L 117.433594 95.429688 L 124.578125 87.289062 C 124.980469 86.835938 125.074219 86.207031 124.863281 85.660156 C 124.683594 85.109375 124.210938 84.683594 123.617188 84.578125 L 112.9375 82.78125 L 116.820312 79.273438 L 133.980469 78.085938 C 134.855469 78.121094 135.597656 77.433594 135.628906 76.558594 C 135.664062 75.679688 134.976562 74.9375 134.097656 74.910156 L 122.160156 74.457031 L 127.011719 70.070312 L 144.667969 68.4375 C 145.542969 68.472656 146.285156 67.785156 146.316406 66.910156 C 146.351562 66.03125 145.664062 65.289062 144.789062 65.261719 L 132.847656 64.808594 L 137.339844 60.75 L 146.832031 58.503906 C 147.511719 58.441406 148.070312 57.960938 148.230469 57.304688 L 150.359375 48.609375 C 150.496094 48.074219 150.332031 47.527344 149.980469 47.152344 C 149.640625 46.765625 149.117188 46.550781 148.5625 46.628906 L 139.703125 47.875 C 139.03125 47.964844 138.492188 48.484375 138.359375 49.148438 L 135.167969 58.363281 L 130.675781 62.425781 L 131.425781 50.5 C 131.480469 49.621094 130.816406 48.863281 129.941406 48.808594 C 129.0625 48.75 128.304688 49.417969 128.25 50.292969 L 124.839844 67.695312 L 119.988281 72.078125 L 120.738281 60.152344 C 120.792969 59.277344 120.128906 58.519531 119.253906 58.464844 C 118.375 58.40625 117.617188 59.070312 117.5625 59.949219 L 114.648438 76.898438 L 110.765625 80.40625 L 110.058594 69.597656 C 110.015625 68.996094 109.640625 68.488281 109.109375 68.246094 C 108.59375 67.984375 107.957031 68.011719 107.460938 68.359375 L 98.640625 74.640625 L 98.902344 69.414062 L 110.191406 56.441406 C 110.835938 55.847656 110.878906 54.835938 110.277344 54.191406 C 109.675781 53.546875 108.671875 53.503906 108.027344 54.105469 L 99.261719 62.226562 L 99.59375 55.691406 L 110.917969 42.054688 C 111.5625 41.457031 111.605469 40.449219 111.003906 39.804688 C 110.402344 39.160156 109.398438 39.117188 108.753906 39.71875 L 99.992188 47.839844 L 100.296875 41.792969 L 105.421875 33.496094 C 105.855469 32.972656 105.910156 32.234375 105.558594 31.648438 L 100.917969 23.996094 C 100.628906 23.519531 100.132812 23.253906 99.617188 23.230469 C 99.101562 23.195312 98.578125 23.414062 98.246094 23.859375 L 92.855469 31.003906 C 92.445312 31.550781 92.421875 32.292969 92.804688 32.851562 L 97.070312 41.621094 L 96.765625 47.667969 L 88.863281 38.707031 C 88.285156 38.050781 87.28125 37.984375 86.617188 38.566406 C 85.957031 39.144531 85.894531 40.148438 86.472656 40.816406 L 96.363281 55.527344 L 96.03125 62.0625 L 88.128906 53.101562 C 87.550781 52.445312 86.542969 52.378906 85.878906 52.960938 C 85.222656 53.539062 85.160156 54.542969 85.738281 55.210938 L 95.664062 69.257812 L 95.402344 74.484375 L 87.257812 67.339844 C 86.804688 66.9375 86.175781 66.84375 85.632812 67.058594 C 85.082031 67.234375 84.65625 67.707031 84.558594 68.300781 L 82.761719 78.984375 L 79.253906 75.101562 L 78.0625 57.941406 C 78.097656 57.0625 77.414062 56.320312 76.535156 56.292969 C 75.660156 56.257812 74.917969 56.941406 74.886719 57.820312 L 74.433594 69.757812 L 70.050781 64.90625 L 68.414062 47.253906 C 68.449219 46.375 67.765625 45.632812 66.886719 45.605469 C 66.011719 45.570312 65.269531 46.253906 65.238281 47.132812 L 64.785156 59.070312 L 60.726562 54.582031 L 58.484375 45.085938 C 58.421875 44.410156 57.941406 43.851562 57.28125 43.6875 L 48.589844 41.558594 C 48.050781 41.421875 47.507812 41.585938 47.132812 41.941406 C 46.742188 42.28125 46.53125 42.804688 46.609375 43.355469 L 47.851562 52.21875 C 47.945312 52.890625 48.460938 53.425781 49.125 53.5625 L 58.34375 56.75 L 62.402344 61.242188 L 50.476562 60.492188 C 49.601562 60.4375 48.84375 61.101562 48.785156 61.980469 C 48.730469 62.855469 49.394531 63.613281 50.273438 63.667969 L 67.671875 67.078125 L 72.058594 71.929688 L 60.132812 71.179688 C 59.253906 71.125 58.5 71.789062 58.441406 72.667969 C 58.386719 73.542969 59.050781 74.300781 59.925781 74.355469 L 76.875 77.273438 L 80.382812 81.15625 L 69.574219 81.863281 C 68.972656 81.90625 68.457031 82.28125 68.226562 82.808594 C 67.964844 83.328125 67.992188 83.964844 68.34375 84.457031 L 74.625 93.277344 L 69.398438 93.015625 L 56.425781 81.726562 C 55.832031 81.085938 54.820312 81.042969 54.175781 81.644531 C 53.53125 82.246094 53.492188 83.25 54.09375 83.890625 L 62.210938 92.65625 L 55.675781 92.324219 L 42.039062 81 C 41.445312 80.355469 40.433594 80.3125 39.789062 80.914062 C 39.144531 81.515625 39.109375 82.519531 39.703125 83.164062 L 47.824219 91.925781 L 41.777344 91.625 L 33.480469 86.496094 C 32.957031 86.0625 32.222656 86.007812 31.632812 86.359375 L 23.980469 91 C 23.507812 91.292969 23.238281 91.785156 23.214844 92.300781 C 23.179688 92.820312 23.402344 93.34375 23.847656 93.675781 L 30.988281 99.066406 C 31.535156 99.476562 32.277344 99.496094 32.835938 99.113281 L 41.605469 94.847656 L 47.65625 95.152344 L 38.691406 103.054688 C 38.035156 103.632812 37.972656 104.636719 38.550781 105.304688 C 39.132812 105.960938 40.136719 106.023438 40.800781 105.445312 L 55.515625 95.554688 L 62.050781 95.890625 L 53.085938 103.789062 C 52.429688 104.371094 52.367188 105.375 52.945312 106.039062 C 53.527344 106.695312 54.53125 106.761719 55.195312 106.179688 L 69.242188 96.257812 L 74.46875 96.519531 L 67.328125 104.660156 C 66.921875 105.113281 66.832031 105.742188 67.042969 106.285156 C 67.21875 106.839844 67.695312 107.261719 68.289062 107.367188 L 78.96875 109.164062 L 75.085938 112.675781 L 57.925781 113.863281 C 57.046875 113.828125 56.304688 114.511719 56.277344 115.390625 C 56.242188 116.265625 56.929688 117.011719 57.804688 117.039062 L 69.746094 117.492188 L 64.894531 121.875 L 47.238281 123.511719 C 46.359375 123.476562 45.617188 124.160156 45.589844 125.039062 C 45.554688 125.914062 46.242188 126.65625 47.117188 126.6875 L 59.058594 127.140625 L 54.566406 131.199219 L 45.074219 133.441406 C 44.394531 133.503906 43.835938 133.984375 43.671875 134.644531 L 41.542969 143.335938 C 41.410156 143.875 41.570312 144.417969 41.925781 144.792969 C 42.265625 145.183594 42.789062 145.394531 43.339844 145.316406 L 52.203125 144.074219 C 52.875 143.980469 53.414062 143.464844 53.546875 142.800781 L 56.738281 133.582031 L 61.230469 129.523438 L 60.480469 141.449219 C 60.421875 142.324219 61.085938 143.082031 61.964844 143.140625 C 62.84375 143.195312 63.597656 142.53125 63.65625 141.652344 L 67.066406 124.253906 L 71.917969 119.867188 L 71.167969 131.792969 C 71.109375 132.671875 71.777344 133.425781 72.652344 133.484375 C 73.53125 133.539062 74.285156 132.875 74.34375 132 L 77.257812 115.050781 L 81.140625 111.542969 L 81.847656 122.351562 C 81.890625 122.957031 82.265625 123.46875 82.796875 123.703125 C 83.3125 123.964844 83.949219 123.933594 84.4375 123.582031 L 93.257812 117.300781 L 92.996094 122.527344 L 81.707031 135.5 C 81.0625 136.09375 81.019531 137.105469 81.621094 137.75 C 82.222656 138.394531 83.226562 138.433594 83.871094 137.835938 L 92.636719 129.714844 L 92.300781 136.25 L 80.976562 149.886719 C 80.335938 150.480469 80.292969 151.492188 80.894531 152.136719 C 81.496094 152.78125 82.5 152.824219 83.140625 152.222656 L 91.90625 144.101562 L 91.601562 150.148438 L 86.472656 158.445312 C 86.042969 158.96875 85.984375 159.703125 86.339844 160.292969 L 90.980469 167.945312 C 91.269531 168.417969 91.765625 168.6875 92.28125 168.710938 C 92.796875 168.746094 93.320312 168.527344 93.652344 168.078125 L 99.042969 160.9375 C 99.453125 160.390625 99.476562 159.648438 99.09375 159.089844 L 94.828125 150.320312 L 95.132812 144.269531 L 103.03125 153.234375 C 103.613281 153.890625 104.617188 153.953125 105.28125 153.375 C 105.941406 152.792969 106.003906 151.789062 105.421875 151.125 L 95.535156 136.414062 L 95.867188 129.875 L 103.769531 138.839844 C 104.347656 139.496094 105.351562 139.558594 106.019531 138.980469 C 106.675781 138.398438 106.738281 137.394531 106.160156 136.730469 L 96.234375 122.683594 L 96.496094 117.457031 L 104.636719 124.601562 C 105.089844 124.996094 105.722656 125.09375 106.265625 124.882812 C 106.816406 124.707031 107.25 124.230469 107.347656 123.636719 L 109.144531 112.957031 L 112.652344 116.839844 L 113.839844 134 C 113.804688 134.878906 114.492188 135.621094 115.367188 135.648438 C 116.246094 135.683594 116.988281 134.996094 117.015625 134.121094 L 117.46875 122.179688 L 121.855469 127.03125 L 123.488281 144.6875 C 123.453125 145.566406 124.140625 146.308594 125.015625 146.335938 C 125.894531 146.371094 126.636719 145.683594 126.664062 144.808594 L 127.117188 132.867188 L 131.179688 137.359375 L 133.421875 146.851562 C 133.484375 147.53125 133.964844 148.089844 134.621094 148.253906 L 143.316406 150.382812 C 143.851562 150.515625 144.398438 150.355469 144.773438 150 C 145.160156 149.660156 145.375 149.136719 145.296875 148.585938 L 144.050781 139.722656 C 143.960938 139.050781 143.441406 138.511719 142.777344 138.378906 L 133.5625 135.1875 L 129.5 130.695312 L 141.425781 131.445312 C 142.304688 131.503906 143.0625 130.839844 143.117188 129.960938 C 143.175781 129.085938 142.507812 128.328125 141.632812 128.269531 L 124.230469 124.863281 L 119.847656 120.007812 L 131.773438 120.757812 C 132.648438 120.816406 133.40625 120.152344 133.460938 119.273438 C 133.519531 118.394531 132.855469 117.640625 131.976562 117.582031 L 115.03125 114.667969 L 111.519531 110.785156 L 122.328125 110.078125 C 122.929688 110.035156 123.441406 109.660156 123.679688 109.128906 C 123.949219 108.613281 123.914062 107.976562 123.566406 107.480469 L 117.285156 98.660156 L 122.511719 98.921875 L 135.484375 110.210938 C 136.078125 110.855469 137.089844 110.898438 137.734375 110.296875 C 138.378906 109.695312 138.421875 108.691406 137.820312 108.046875 L 129.699219 99.285156 L 136.234375 99.617188 L 149.871094 110.941406 C 150.46875 111.585938 151.480469 111.628906 152.121094 111.027344 C 152.765625 110.425781 152.800781 109.421875 152.207031 108.777344 L 144.085938 100.011719 L 150.132812 100.316406 L 158.433594 105.445312 C 158.957031 105.875 159.691406 105.933594 160.277344 105.578125 L 167.929688 100.9375 C 168.40625 100.648438 168.675781 100.152344 168.695312 99.636719 C 168.730469 99.121094 168.511719 98.597656 168.066406 98.265625 Z M 141.277344 50.84375 L 146.726562 50.082031 L 145.417969 55.421875 L 140.296875 55.886719 Z M 50.84375 50.640625 L 50.082031 45.195312 L 55.421875 46.503906 L 55.886719 51.625 Z M 32.015625 95.8125 L 27.625 92.5 L 32.328125 89.648438 L 36.28125 92.9375 Z M 50.640625 141.074219 L 45.195312 141.835938 L 46.503906 136.496094 L 51.625 136.03125 Z M 141.074219 141.277344 L 141.835938 146.726562 L 136.496094 145.417969 L 136.03125 140.296875 Z M 107.765625 83.121094 L 105.148438 85.484375 L 107.445312 78.234375 Z M 100.375 90.019531 C 99.609375 89.445312 98.730469 89.027344 97.777344 88.785156 L 103.5625 79.945312 Z M 92.375 95.960938 C 92.375 93.980469 93.980469 92.375 95.960938 92.375 C 97.941406 92.375 99.546875 93.980469 99.546875 95.960938 C 99.546875 97.941406 97.941406 99.546875 95.960938 99.546875 C 93.980469 99.546875 92.375 97.941406 92.375 95.960938 Z M 92.167969 89.601562 L 90.011719 79.253906 L 94.878906 88.632812 C 93.902344 88.773438 92.980469 89.105469 92.167969 89.59375 Z M 86.324219 77.164062 L 87.882812 84.613281 L 85.519531 81.996094 L 86.332031 77.164062 Z M 90.019531 91.546875 C 89.445312 92.308594 89.027344 93.1875 88.785156 94.140625 L 79.945312 88.355469 Z M 82.222656 93.652344 L 78.699219 93.476562 L 75.855469 89.488281 Z M 78.53125 96.6875 L 82.054688 96.863281 L 75.296875 100.367188 L 78.53125 96.679688 Z M 88.636719 97.042969 C 88.78125 98.019531 89.113281 98.9375 89.601562 99.75 L 79.253906 101.910156 L 88.632812 97.042969 Z M 84.152344 108.796875 L 86.769531 106.433594 L 84.472656 113.683594 Z M 91.546875 101.902344 C 92.308594 102.472656 93.1875 102.890625 94.140625 103.132812 L 88.355469 111.972656 Z M 99.75 102.320312 L 101.910156 112.667969 L 97.042969 103.289062 C 98.019531 103.144531 98.9375 102.8125 99.75 102.324219 Z M 105.59375 114.753906 L 104.039062 107.304688 L 106.398438 109.921875 L 105.585938 114.753906 Z M 101.902344 100.375 C 102.472656 99.609375 102.890625 98.730469 103.132812 97.777344 L 111.972656 103.570312 L 101.894531 100.378906 Z M 109.695312 98.265625 L 113.21875 98.441406 L 116.0625 102.433594 Z M 113.386719 95.230469 L 109.867188 95.054688 L 116.621094 91.554688 L 113.386719 95.238281 Z M 103.28125 94.878906 C 103.140625 93.902344 102.804688 92.980469 102.320312 92.167969 L 112.667969 90.011719 L 103.289062 94.878906 Z M 114.753906 86.324219 L 107.304688 87.882812 L 109.921875 85.519531 L 114.753906 86.332031 Z M 102.4375 75.855469 L 98.273438 82.222656 L 98.449219 78.699219 Z M 96.109375 32.015625 L 99.417969 27.625 L 102.269531 32.328125 L 98.980469 36.28125 Z M 95.230469 78.53125 L 95.054688 82.054688 L 91.554688 75.296875 L 95.238281 78.53125 Z M 83.121094 84.152344 L 85.484375 86.769531 L 78.234375 84.472656 Z M 77.164062 105.59375 L 84.613281 104.039062 L 81.996094 106.398438 L 77.164062 105.585938 Z M 89.480469 116.0625 L 93.648438 109.695312 L 93.46875 113.21875 Z M 95.8125 159.902344 L 92.5 164.296875 L 89.648438 159.59375 L 92.9375 155.636719 Z M 96.6875 113.386719 L 96.863281 109.867188 L 100.367188 116.621094 L 96.679688 113.386719 Z M 108.796875 107.765625 L 106.433594 105.148438 L 113.683594 107.445312 Z M 159.59375 102.269531 L 155.636719 98.980469 L 159.902344 96.109375 L 164.296875 99.417969 Z M 159.59375 102.269531 " fill-opacity="1" fill-rule="nonzero"/></g></svg>